<svg width="190" height="32" viewBox="0 0 190 32" fill="none" xmlns="http://www.w3.org/2000/svg">
<path fill-rule="evenodd" clip-rule="evenodd" d="M13.6858 29.6857C21.2442 29.6857 27.3715 23.5584 27.3715 16C27.3715 8.44153 21.2442 2.31421 13.6858 2.31421C6.12732 2.31421 0 8.44153 0 16C0 23.5584 6.12732 29.6857 13.6858 29.6857ZM15.5322 13.3007C14.051 10.6862 13.6857 5.24476 13.6857 5.24476C13.6857 5.24476 13.3204 10.6862 11.8393 13.3007C11.0315 14.7266 9.05634 15.9999 9.05634 15.9999C9.05634 15.9999 11.0315 17.2732 11.8393 18.6991C13.3204 21.3136 13.6857 26.7551 13.6857 26.7551C13.6857 26.7551 14.051 21.3136 15.5322 18.6991C16.34 17.2732 18.3152 15.9999 18.3152 15.9999C18.3152 15.9999 16.34 14.7266 15.5322 13.3007Z" fill="#000011"/>
<path d="M48.1879 24.5H37.1957C36.9144 24.5 36.6097 24.4688 36.2816 24.4062C35.9613 24.3359 35.641 24.2305 35.3207 24.0898C35.0082 23.9492 34.7074 23.7695 34.4183 23.5508C34.1293 23.3242 33.8715 23.0547 33.6449 22.7422C33.4261 22.4219 33.2504 22.0547 33.1176 21.6406C32.9847 21.2188 32.9183 20.7461 32.9183 20.2227V11.9727C32.9183 11.6914 32.9496 11.3906 33.0121 11.0703C33.0824 10.7422 33.1879 10.4219 33.3285 10.1094C33.4691 9.78906 33.6527 9.48438 33.8793 9.19531C34.1058 8.90625 34.3754 8.65234 34.6879 8.43359C35.0082 8.20703 35.3754 8.02734 35.7894 7.89453C36.2035 7.76172 36.6722 7.69531 37.1957 7.69531H48.1879V10.7422H37.1957C36.7972 10.7422 36.4926 10.8477 36.2816 11.0586C36.0707 11.2695 35.9652 11.582 35.9652 11.9961V20.2227C35.9652 20.6133 36.0707 20.918 36.2816 21.1367C36.5004 21.3477 36.8051 21.4531 37.1957 21.4531H48.1879V24.5ZM61.7465 14.8789H54.891C54.4769 14.8789 54.1644 14.9844 53.9535 15.1953C53.7426 15.3984 53.6371 15.6992 53.6371 16.0977V24.5H50.5902V16.0977C50.5902 15.5742 50.6566 15.1055 50.7894 14.6914C50.9222 14.2773 51.098 13.9141 51.3168 13.6016C51.5433 13.2812 51.8011 13.0117 52.0902 12.793C52.3793 12.5664 52.6801 12.3828 52.9926 12.2422C53.3129 12.1016 53.6332 12 53.9535 11.9375C54.2816 11.8672 54.5863 11.832 54.8676 11.832H61.7465V14.8789ZM77.7308 25.7188C77.7308 26.2422 77.6644 26.7109 77.5316 27.125C77.3988 27.5469 77.223 27.9141 77.0043 28.2266C76.7855 28.5469 76.5316 28.8164 76.2426 29.0352C75.9535 29.2617 75.6488 29.4453 75.3285 29.5859C75.016 29.7266 74.6996 29.8281 74.3793 29.8906C74.059 29.9609 73.7543 29.9961 73.4652 29.9961H67.9691V26.9492H73.4652C73.8715 26.9492 74.1761 26.8438 74.3793 26.6328C74.5824 26.4219 74.684 26.1172 74.684 25.7188V11.832H77.7308V25.7188ZM73.4652 24.5H67.9691C67.5316 24.5 67.0629 24.4258 66.5629 24.2773C66.0707 24.1289 65.6097 23.8867 65.1801 23.5508C64.7504 23.207 64.3949 22.7656 64.1136 22.2266C63.8324 21.6797 63.6918 21.0117 63.6918 20.2227V11.832H66.7386V20.2227C66.7386 20.6211 66.8441 20.9258 67.0551 21.1367C67.266 21.3477 67.5785 21.4531 67.9926 21.4531H73.4652V24.5ZM92.8832 20.2227C92.8832 20.7461 92.8168 21.2188 92.684 21.6406C92.5511 22.0547 92.3754 22.4219 92.1566 22.7422C91.9379 23.0547 91.684 23.3242 91.3949 23.5508C91.1058 23.7695 90.8011 23.9492 90.4808 24.0898C90.1683 24.2305 89.848 24.3359 89.5199 24.4062C89.1996 24.4688 88.8949 24.5 88.6058 24.5H80.3558V21.4531H88.5824C88.9965 21.4531 89.309 21.3477 89.5199 21.1367C89.7308 20.9258 89.8363 20.6211 89.8363 20.2227C89.7972 19.4102 89.3871 19.0039 88.6058 19.0039H83.8832C83.2113 19.0039 82.641 18.8867 82.1722 18.6523C81.7035 18.418 81.3207 18.125 81.0238 17.7734C80.7347 17.4219 80.5238 17.043 80.391 16.6367C80.266 16.2305 80.2035 15.8516 80.2035 15.5C80.2035 14.8203 80.3246 14.25 80.5668 13.7891C80.809 13.3203 81.1136 12.9414 81.4808 12.6523C81.848 12.3633 82.2465 12.1562 82.6761 12.0312C83.1058 11.8984 83.5082 11.832 83.8832 11.832H91.3715V14.8789H83.9066C83.7504 14.8789 83.6254 14.8984 83.5316 14.9375C83.4457 14.9688 83.3793 15.0156 83.3324 15.0781C83.2933 15.1328 83.2699 15.1953 83.2621 15.2656C83.2543 15.3281 83.2504 15.3906 83.2504 15.4531C83.2582 15.5781 83.2816 15.6758 83.3207 15.7461C83.3597 15.8164 83.4066 15.8672 83.4613 15.8984C83.5238 15.9297 83.5902 15.9492 83.6605 15.957C83.7386 15.957 83.8129 15.957 83.8832 15.957H88.6058C89.3871 15.957 90.0511 16.0977 90.598 16.3789C91.1449 16.6602 91.5863 17.0156 91.9222 17.4453C92.2582 17.8672 92.5004 18.3281 92.6488 18.8281C92.8051 19.3281 92.8832 19.793 92.8832 20.2227ZM106.336 14.8789H101.016V24.5H97.934V14.8789H93.973V11.832H97.934V7.69531H101.016V11.832H106.336V14.8789ZM120.692 20.3047C120.692 20.7266 120.618 21.1836 120.469 21.6758C120.321 22.1602 120.078 22.6133 119.743 23.0352C119.414 23.4492 118.981 23.7969 118.442 24.0781C117.911 24.3594 117.262 24.5 116.496 24.5H111C110.578 24.5 110.121 24.4258 109.629 24.2773C109.145 24.1289 108.692 23.8906 108.27 23.5625C107.856 23.2266 107.508 22.793 107.227 22.2617C106.946 21.7227 106.805 21.0703 106.805 20.3047C106.805 19.8828 106.879 19.4258 107.028 18.9336C107.176 18.4414 107.414 17.9883 107.743 17.5742C108.078 17.1523 108.512 16.8008 109.043 16.5195C109.582 16.2383 110.235 16.0977 111 16.0977H116.496V19.0039H111C110.586 19.0039 110.266 19.1328 110.039 19.3906C109.813 19.6406 109.7 19.9531 109.7 20.3281C109.7 20.7266 109.828 21.0391 110.086 21.2656C110.352 21.4844 110.664 21.5938 111.024 21.5938H116.496C116.911 21.5938 117.231 21.4688 117.457 21.2188C117.684 20.9688 117.797 20.6562 117.797 20.2812V16.0273C117.797 15.6289 117.672 15.3125 117.422 15.0781C117.18 14.8438 116.871 14.7266 116.496 14.7266H109.805V11.832H116.496C116.918 11.832 117.371 11.9062 117.856 12.0547C118.348 12.2031 118.801 12.4453 119.215 12.7812C119.637 13.1094 119.989 13.543 120.27 14.082C120.551 14.6133 120.692 15.2617 120.692 16.0273V20.3047ZM128.86 24.5H127.5C127.063 24.5 126.594 24.4258 126.094 24.2773C125.602 24.1289 125.141 23.8867 124.711 23.5508C124.282 23.207 123.926 22.7656 123.645 22.2266C123.364 21.6797 123.223 21.0117 123.223 20.2227V6.47656H126.27V20.2227C126.27 20.5977 126.387 20.8984 126.621 21.125C126.856 21.3438 127.149 21.4531 127.5 21.4531H128.86V24.5ZM141.903 14.8789H135.047C134.633 14.8789 134.321 14.9844 134.11 15.1953C133.899 15.3984 133.793 15.6992 133.793 16.0977V24.5H130.746V16.0977C130.746 15.5742 130.813 15.1055 130.946 14.6914C131.078 14.2773 131.254 13.9141 131.473 13.6016C131.7 13.2812 131.957 13.0117 132.246 12.793C132.536 12.5664 132.836 12.3828 133.149 12.2422C133.469 12.1016 133.789 12 134.11 11.9375C134.438 11.8672 134.743 11.832 135.024 11.832H141.903V14.8789ZM157.653 20.2227C157.653 20.7461 157.586 21.2188 157.453 21.6406C157.321 22.0547 157.145 22.4219 156.926 22.7422C156.707 23.0547 156.453 23.3242 156.164 23.5508C155.875 23.7695 155.571 23.9492 155.25 24.0898C154.938 24.2305 154.618 24.3359 154.289 24.4062C153.969 24.4688 153.664 24.5 153.375 24.5H147.879C147.457 24.5 146.996 24.4258 146.496 24.2773C145.996 24.1289 145.532 23.8867 145.102 23.5508C144.68 23.207 144.325 22.7656 144.036 22.2266C143.754 21.6797 143.614 21.0117 143.614 20.2227V16.0977C143.614 15.3164 143.754 14.6562 144.036 14.1172C144.325 13.5703 144.68 13.1289 145.102 12.793C145.532 12.4492 145.996 12.2031 146.496 12.0547C146.996 11.9062 147.457 11.832 147.879 11.832H153.375C154.157 11.832 154.821 11.9727 155.368 12.2539C155.914 12.5352 156.356 12.8906 156.692 13.3203C157.028 13.7422 157.27 14.2031 157.418 14.7031C157.575 15.2031 157.653 15.668 157.653 16.0977V20.2227ZM154.606 16.1211C154.606 15.6992 154.5 15.3867 154.289 15.1836C154.078 14.9805 153.774 14.8789 153.375 14.8789H147.903C147.496 14.8789 147.188 14.9844 146.977 15.1953C146.766 15.3984 146.661 15.6992 146.661 16.0977V20.2227C146.661 20.6211 146.766 20.9258 146.977 21.1367C147.188 21.3477 147.496 21.4531 147.903 21.4531H153.375C153.789 21.4531 154.098 21.3477 154.301 21.1367C154.504 20.9258 154.606 20.6211 154.606 20.2227V16.1211ZM174.34 24.5H171.293V16.0977C171.293 15.6992 171.192 15.3984 170.989 15.1953C170.786 14.9844 170.481 14.8789 170.075 14.8789H164.578V11.832H170.075C170.364 11.832 170.668 11.8672 170.989 11.9375C171.309 12 171.625 12.1016 171.938 12.2422C172.258 12.3828 172.563 12.5664 172.852 12.793C173.141 13.0117 173.395 13.2812 173.614 13.6016C173.832 13.9141 174.008 14.2773 174.141 14.6914C174.274 15.1055 174.34 15.5742 174.34 16.0977V24.5ZM163.348 24.5H160.301V6.47656H163.348V24.5ZM188.215 14.8789H181.36C180.946 14.8789 180.633 14.9844 180.422 15.1953C180.211 15.3984 180.106 15.6992 180.106 16.0977V24.5H177.059V16.0977C177.059 15.5742 177.125 15.1055 177.258 14.6914C177.391 14.2773 177.567 13.9141 177.786 13.6016C178.012 13.2812 178.27 13.0117 178.559 12.793C178.848 12.5664 179.149 12.3828 179.461 12.2422C179.782 12.1016 180.102 12 180.422 11.9375C180.75 11.8672 181.055 11.832 181.336 11.832H188.215V14.8789Z" fill="#000011"/>
</svg>
