<svg width="264" height="175" viewBox="0 0 264 175" fill="none" xmlns="http://www.w3.org/2000/svg">
<path fill-rule="evenodd" clip-rule="evenodd" d="M132 123.172C166.013 123.172 193.586 95.5989 193.586 61.5859C193.586 27.573 166.013 0 132 0C97.987 0 70.4141 27.573 70.4141 61.5859C70.4141 95.5989 97.987 123.172 132 123.172ZM140.309 49.4392C133.644 37.674 132 13.1874 132 13.1874C132 13.1874 130.356 37.674 123.691 49.4392C120.056 55.8559 111.168 61.5856 111.168 61.5856C111.168 61.5856 120.056 67.3153 123.691 73.732C130.356 85.4972 132 109.984 132 109.984C132 109.984 133.644 85.4972 140.309 73.732C143.944 67.3153 152.832 61.5856 152.832 61.5856C152.832 61.5856 143.944 55.8559 140.309 49.4392Z" fill="#000011"/>
<path d="M28.5273 163.172H10.207C9.73828 163.172 9.23047 163.12 8.68359 163.016C8.14974 162.898 7.61589 162.723 7.08203 162.488C6.5612 162.254 6.0599 161.954 5.57812 161.59C5.09635 161.212 4.66667 160.763 4.28906 160.242C3.92448 159.708 3.63151 159.096 3.41016 158.406C3.1888 157.703 3.07812 156.915 3.07812 156.043V142.293C3.07812 141.824 3.13021 141.323 3.23438 140.789C3.35156 140.242 3.52734 139.708 3.76172 139.187C3.99609 138.654 4.30208 138.146 4.67969 137.664C5.05729 137.182 5.50651 136.759 6.02734 136.394C6.5612 136.017 7.17318 135.717 7.86328 135.496C8.55339 135.275 9.33464 135.164 10.207 135.164H28.5273V140.242H10.207C9.54297 140.242 9.03516 140.418 8.68359 140.769C8.33203 141.121 8.15625 141.642 8.15625 142.332V156.043C8.15625 156.694 8.33203 157.202 8.68359 157.566C9.04818 157.918 9.55599 158.094 10.207 158.094H28.5273V163.172ZM51.125 147.137H39.6992C39.0091 147.137 38.4883 147.312 38.1367 147.664C37.7852 148.003 37.6094 148.504 37.6094 149.168V163.172H32.5312V149.168C32.5312 148.296 32.6419 147.514 32.8633 146.824C33.0846 146.134 33.3776 145.529 33.7422 145.008C34.1198 144.474 34.5495 144.025 35.0312 143.66C35.513 143.282 36.0143 142.977 36.5352 142.742C37.069 142.508 37.6029 142.338 38.1367 142.234C38.6836 142.117 39.1914 142.059 39.6602 142.059H51.125V147.137ZM77.7656 165.203C77.7656 166.075 77.6549 166.857 77.4336 167.547C77.2122 168.25 76.9193 168.862 76.5547 169.383C76.1901 169.917 75.7669 170.366 75.2852 170.73C74.8034 171.108 74.2956 171.414 73.7617 171.648C73.2409 171.883 72.7135 172.052 72.1797 172.156C71.6458 172.273 71.138 172.332 70.6562 172.332H61.4961V167.254H70.6562C71.3333 167.254 71.8411 167.078 72.1797 166.727C72.5182 166.375 72.6875 165.867 72.6875 165.203V142.059H77.7656V165.203ZM70.6562 163.172H61.4961C60.7669 163.172 59.9857 163.048 59.1523 162.801C58.332 162.553 57.5638 162.15 56.8477 161.59C56.1315 161.017 55.5391 160.281 55.0703 159.383C54.6016 158.471 54.3672 157.358 54.3672 156.043V142.059H59.4453V156.043C59.4453 156.707 59.6211 157.215 59.9727 157.566C60.3242 157.918 60.8451 158.094 61.5352 158.094H70.6562V163.172ZM103.02 156.043C103.02 156.915 102.909 157.703 102.688 158.406C102.466 159.096 102.173 159.708 101.809 160.242C101.444 160.763 101.021 161.212 100.539 161.59C100.057 161.954 99.5495 162.254 99.0156 162.488C98.4948 162.723 97.9609 162.898 97.4141 163.016C96.8802 163.12 96.3724 163.172 95.8906 163.172H82.1406V158.094H95.8516C96.5417 158.094 97.0625 157.918 97.4141 157.566C97.7656 157.215 97.9414 156.707 97.9414 156.043C97.8763 154.689 97.1927 154.012 95.8906 154.012H88.0195C86.8997 154.012 85.9492 153.816 85.168 153.426C84.3867 153.035 83.7487 152.547 83.2539 151.961C82.7721 151.375 82.4206 150.743 82.1992 150.066C81.9909 149.389 81.8867 148.758 81.8867 148.172C81.8867 147.039 82.0885 146.088 82.4922 145.32C82.8958 144.539 83.4036 143.907 84.0156 143.426C84.6276 142.944 85.2917 142.599 86.0078 142.391C86.724 142.169 87.3945 142.059 88.0195 142.059H100.5V147.137H88.0586C87.7982 147.137 87.5898 147.169 87.4336 147.234C87.2904 147.286 87.1797 147.365 87.1016 147.469C87.0365 147.56 86.9974 147.664 86.9844 147.781C86.9714 147.885 86.9648 147.99 86.9648 148.094C86.9779 148.302 87.0169 148.465 87.082 148.582C87.1471 148.699 87.2253 148.784 87.3164 148.836C87.4206 148.888 87.5312 148.921 87.6484 148.934C87.7786 148.934 87.9023 148.934 88.0195 148.934H95.8906C97.1927 148.934 98.2995 149.168 99.2109 149.637C100.122 150.105 100.858 150.698 101.418 151.414C101.978 152.117 102.382 152.885 102.629 153.719C102.889 154.552 103.02 155.327 103.02 156.043ZM125.441 147.137H116.574V163.172H111.438V147.137H104.836V142.059H111.438V135.164H116.574V142.059H125.441V147.137ZM149.367 156.18C149.367 156.883 149.243 157.644 148.996 158.465C148.749 159.272 148.345 160.027 147.785 160.73C147.238 161.421 146.516 162 145.617 162.469C144.732 162.937 143.651 163.172 142.375 163.172H133.215C132.512 163.172 131.75 163.048 130.93 162.801C130.122 162.553 129.367 162.156 128.664 161.609C127.974 161.049 127.395 160.327 126.926 159.441C126.457 158.543 126.223 157.456 126.223 156.18C126.223 155.477 126.346 154.715 126.594 153.894C126.841 153.074 127.238 152.319 127.785 151.629C128.345 150.926 129.068 150.34 129.953 149.871C130.852 149.402 131.939 149.168 133.215 149.168H142.375V154.012H133.215C132.525 154.012 131.991 154.227 131.613 154.656C131.236 155.073 131.047 155.594 131.047 156.219C131.047 156.883 131.262 157.404 131.691 157.781C132.134 158.146 132.655 158.328 133.254 158.328H142.375C143.065 158.328 143.599 158.12 143.977 157.703C144.354 157.286 144.543 156.766 144.543 156.141V149.051C144.543 148.387 144.335 147.859 143.918 147.469C143.514 147.078 143 146.883 142.375 146.883H131.223V142.059H142.375C143.078 142.059 143.833 142.182 144.641 142.43C145.461 142.677 146.216 143.081 146.906 143.641C147.609 144.187 148.195 144.91 148.664 145.809C149.133 146.694 149.367 147.775 149.367 149.051V156.18ZM162.98 163.172H160.715C159.986 163.172 159.204 163.048 158.371 162.801C157.551 162.553 156.783 162.15 156.066 161.59C155.35 161.017 154.758 160.281 154.289 159.383C153.82 158.471 153.586 157.358 153.586 156.043V133.133H158.664V156.043C158.664 156.668 158.859 157.169 159.25 157.547C159.641 157.911 160.129 158.094 160.715 158.094H162.98V163.172ZM184.719 147.137H173.293C172.603 147.137 172.082 147.312 171.73 147.664C171.379 148.003 171.203 148.504 171.203 149.168V163.172H166.125V149.168C166.125 148.296 166.236 147.514 166.457 146.824C166.678 146.134 166.971 145.529 167.336 145.008C167.714 144.474 168.143 144.025 168.625 143.66C169.107 143.282 169.608 142.977 170.129 142.742C170.663 142.508 171.197 142.338 171.73 142.234C172.277 142.117 172.785 142.059 173.254 142.059H184.719V147.137ZM210.969 156.043C210.969 156.915 210.858 157.703 210.637 158.406C210.415 159.096 210.122 159.708 209.758 160.242C209.393 160.763 208.97 161.212 208.488 161.59C208.007 161.954 207.499 162.254 206.965 162.488C206.444 162.723 205.91 162.898 205.363 163.016C204.829 163.12 204.322 163.172 203.84 163.172H194.68C193.977 163.172 193.208 163.048 192.375 162.801C191.542 162.553 190.767 162.15 190.051 161.59C189.348 161.017 188.755 160.281 188.273 159.383C187.805 158.471 187.57 157.358 187.57 156.043V149.168C187.57 147.866 187.805 146.766 188.273 145.867C188.755 144.956 189.348 144.22 190.051 143.66C190.767 143.087 191.542 142.677 192.375 142.43C193.208 142.182 193.977 142.059 194.68 142.059H203.84C205.142 142.059 206.249 142.293 207.16 142.762C208.072 143.23 208.807 143.823 209.367 144.539C209.927 145.242 210.331 146.01 210.578 146.844C210.839 147.677 210.969 148.452 210.969 149.168V156.043ZM205.891 149.207C205.891 148.504 205.715 147.983 205.363 147.644C205.012 147.306 204.504 147.137 203.84 147.137H194.719C194.042 147.137 193.527 147.312 193.176 147.664C192.824 148.003 192.648 148.504 192.648 149.168V156.043C192.648 156.707 192.824 157.215 193.176 157.566C193.527 157.918 194.042 158.094 194.719 158.094H203.84C204.53 158.094 205.044 157.918 205.383 157.566C205.721 157.215 205.891 156.707 205.891 156.043V149.207ZM238.781 163.172H233.703V149.168C233.703 148.504 233.534 148.003 233.195 147.664C232.857 147.312 232.349 147.137 231.672 147.137H222.512V142.059H231.672C232.154 142.059 232.661 142.117 233.195 142.234C233.729 142.338 234.257 142.508 234.777 142.742C235.311 142.977 235.819 143.282 236.301 143.66C236.783 144.025 237.206 144.474 237.57 145.008C237.935 145.529 238.228 146.134 238.449 146.824C238.671 147.514 238.781 148.296 238.781 149.168V163.172ZM220.461 163.172H215.383V133.133H220.461V163.172ZM261.906 147.137H250.48C249.79 147.137 249.27 147.312 248.918 147.664C248.566 148.003 248.391 148.504 248.391 149.168V163.172H243.312V149.168C243.312 148.296 243.423 147.514 243.645 146.824C243.866 146.134 244.159 145.529 244.523 145.008C244.901 144.474 245.331 144.025 245.812 143.66C246.294 143.282 246.796 142.977 247.316 142.742C247.85 142.508 248.384 142.338 248.918 142.234C249.465 142.117 249.973 142.059 250.441 142.059H261.906V147.137Z" fill="#000011"/>
</svg>
